# xmcd
#
# Track frame offsets:
#	150
#	13552
#	26540
#	34850
#	51325
#	67675
#	80307
#	92927
#	111335
#	126000
#	142515
#	156425
#	167675
#	182002
#
# Disc length: 2575 seconds
#
# Revision: 1
# Processed by: cddbd v1.5.2PL0 Copyright (c) Steve Scherf et al.
# Submitted via: audiograbber 1.83.01
#
DISCID=ab0a0d0e
DTITLE=Scotty - Scotty - Rodeo Brat
DYEAR=1900
DGENRE=Country
TTITLE0=Country
TTITLE1=Rodeo Brat
TTITLE2=William Tell Overture
TTITLE3=Children Of Dunblane
TTITLE4=Rockin' Baby In Boots And Jeans
TTITLE5=Theme From Filited Place
TTITLE6=April 28th We will Never Forget
TTITLE7=Mamma's Gone
TTITLE8=Guitar Boogie
TTITLE9=Guitar Pickin' Boot Scootin Cowboy
TTITLE10=Dear God
TTITLE11=Ghost Rider In The Sky
TTITLE12=Don't Mess With My Hat
TTITLE13=Yakety Sax
EXTD=
EXTT0=
EXTT1=
EXTT2=
EXTT3=
EXTT4=
EXTT5=
EXTT6=
EXTT7=
EXTT8=
EXTT9=
EXTT10=
EXTT11=
EXTT12=
EXTT13=
PLAYORDER=
